<?xml version="1.0" encoding="UTF-8"?>
<svg version="1.1" xmlns="http://www.w3.org/2000/svg" width="12" height="12">
<path d="M0 0 C2.96790579 2.59474804 5.98891864 5.11084668 9.0546875 7.58984375 C14.14277956 11.70877541 19.07472573 15.99131709 24.0078125 20.29296875 C27.64225249 23.45463606 31.30998568 26.55841847 35.0546875 29.58984375 C40.14277956 33.70877541 45.07472573 37.99131709 50.0078125 42.29296875 C53.64225249 45.45463606 57.30998568 48.55841847 61.0546875 51.58984375 C66.14277956 55.70877541 71.07472573 59.99131709 76.0078125 64.29296875 C79.64225249 67.45463606 83.30998568 70.55841847 87.0546875 73.58984375 C92.14277956 77.70877541 97.07472573 81.99131709 102.0078125 86.29296875 C105.64225249 89.45463606 109.30998568 92.55841847 113.0546875 95.58984375 C118.14277956 99.70877541 123.07472573 103.99131709 128.0078125 108.29296875 C131.64225249 111.45463606 135.30998568 114.55841847 139.0546875 117.58984375 C144.13498169 121.70246286 149.06247926 125.97521197 153.98364258 130.27539062 C158.65357692 134.34443412 163.41587025 138.26023633 168.28515625 142.08984375 C171.96285834 145.33077915 175.33462309 148.6799581 175.79296875 153.69921875 C176.04497876 164.36322137 176.04497876 164.36322137 171.5546875 169.08984375 C167.73538578 172.71818038 164.67189744 173.39984833 159.5546875 173.58984375 C154.2076815 173.41757342 151.55304565 172.57559188 147.5546875 169.08984375 C146.5646875 168.42984375 145.5746875 167.76984375 144.5546875 167.08984375 C144.55248766 168.80490553 144.55248766 168.80490553 144.55024338 170.55461502 C144.51361922 198.39848909 144.45413127 226.24224314 144.37078476 254.08601761 C144.36283354 256.76860787 144.35496719 259.45119836 144.34716797 262.13378906 C144.34425591 263.13391404 144.34425591 263.13391404 144.34128502 264.15424356 C144.31031342 274.93229796 144.29329792 285.7103311 144.28149328 296.48842159 C144.26905656 307.55814244 144.24120341 318.62774851 144.20007443 329.69739985 C144.17747316 335.91070322 144.16177604 342.12384823 144.16280365 348.33719635 C144.16355103 354.19115379 144.14556833 360.04476135 144.11351967 365.89862823 C144.10503473 368.04149784 144.10326113 370.18440675 144.10888481 372.32728577 C144.14968055 390.26880482 141.85234776 403.24823233 129.2421875 416.83984375 C116.81835214 428.5981165 101.92994983 430.24646588 85.58795166 430.22355652 C83.80180281 430.22695485 83.80180281 430.22695485 81.97957015 430.23042184 C78.69154221 430.23564017 75.40354884 430.23640962 72.11551809 430.23522747 C68.56256313 430.23502274 65.00961622 430.2405491 61.45666504 430.24528503 C54.50206491 430.25357659 47.54747326 430.2563392 40.5928686 430.25689741 C34.93717312 430.25737329 29.28148042 430.25943163 23.62578583 430.26259804 C7.57527926 430.27140061 -8.47522063 430.27601805 -24.52572963 430.27526756 C-25.39025643 430.27522761 -26.25478323 430.27518765 -27.14550781 430.27514648 C-28.01109559 430.2751056 -28.87668336 430.27506472 -29.76850107 430.2750226 C-43.79225964 430.27461627 -57.81599135 430.28418367 -71.83974215 430.29828485 C-86.25449346 430.31266431 -100.66923168 430.31955417 -115.08399034 430.31869107 C-123.17062659 430.31835964 -131.25723467 430.32108312 -139.34386444 430.33186913 C-146.22958232 430.34099481 -153.11525926 430.34313244 -160.00098059 430.3363597 C-163.51031323 430.33310488 -167.01956743 430.33300004 -170.52889252 430.34171295 C-174.34287854 430.34945246 -178.15666034 430.34477488 -181.97064209 430.33708191 C-183.61426086 430.34479725 -183.61426086 430.34479725 -185.29108405 430.35266846 C-202.07877828 430.27815597 -215.40505388 426.840131 -227.609375 414.98828125 C-236.68398475 405.36987466 -240.75351105 394.82189353 -240.7237854 381.74415588 C-240.7295778 380.82345918 -240.7353702 379.90276248 -240.74133813 378.95416588 C-240.75829414 375.88029672 -240.76121086 372.8065781 -240.76416016 369.73266602 C-240.77346136 367.52476129 -240.78363032 365.31686007 -240.79460144 363.10896301 C-240.82189376 357.12197261 -240.83704865 351.13500573 -240.85002947 345.14796948 C-240.8656633 338.88857149 -240.89245275 332.6292215 -240.9180603 326.36985779 C-240.95952875 315.86613496 -240.99412444 305.36240546 -241.0234375 294.85864258 C-241.0536429 284.0418916 -241.08800228 273.22516691 -241.12792969 262.40844727 C-241.13162201 261.40757535 -241.13162201 261.40757535 -241.13538893 260.3864838 C-241.14776391 257.03894602 -241.16022037 253.69140856 -241.17271733 250.34387124 C-241.27603047 222.59256448 -241.36529294 194.84122675 -241.4453125 167.08984375 C-242.05679642 167.51453949 -242.66828033 167.93923523 -243.29829407 168.37680054 C-244.10389267 168.92711945 -244.90949127 169.47743835 -245.73950195 170.04443359 C-246.53661087 170.59287933 -247.33371979 171.14132507 -248.15498352 171.70639038 C-252.71175954 174.45887144 -257.35798527 173.93168392 -262.4453125 173.08984375 C-267.329965 170.82196937 -270.17743812 167.97449625 -272.4453125 163.08984375 C-273.17743927 157.65118771 -273.47933999 153.02170974 -270.84375 148.09765625 C-268.04576958 144.5887883 -265.00659006 141.82929084 -261.5703125 138.96484375 C-260.91192383 138.40571289 -260.25353516 137.84658203 -259.57519531 137.27050781 C-258.20845767 136.11011948 -256.8392968 134.95257947 -255.46777344 133.79785156 C-253.54623665 132.17507616 -251.63768422 130.53862302 -249.734375 128.89453125 C-244.54518325 124.41285969 -239.33387727 119.97141252 -234.0078125 115.65234375 C-228.90223785 111.50923384 -223.94731197 107.20753925 -218.99243164 102.88696289 C-214.50780399 98.98562734 -209.9404958 95.20499213 -205.3203125 91.46484375 C-201.80983611 88.564885 -198.37698523 85.58226237 -194.9453125 82.58984375 C-189.81303594 78.11449859 -184.61345976 73.74977249 -179.3203125 69.46484375 C-175.80983611 66.564885 -172.37698523 63.58226237 -168.9453125 60.58984375 C-163.81303594 56.11449859 -158.61345976 51.74977249 -153.3203125 47.46484375 C-149.80983611 44.564885 -146.37698523 41.58226237 -142.9453125 38.58984375 C-137.81303594 34.11449859 -132.61345976 29.74977249 -127.3203125 25.46484375 C-123.80983611 22.564885 -120.37698523 19.58226237 -116.9453125 16.58984375 C-111.81145814 12.11312274 -106.61360681 7.74348189 -101.3125 3.46484375 C-98.48974881 1.12665203 -95.74351529 -1.28024871 -92.99926758 -3.70922852 C-82.49726049 -12.96976306 -72.41579251 -21.62065316 -58.4453125 -24.91015625 C-57.71183594 -25.08289063 -56.97835937 -25.255625 -56.22265625 -25.43359375 C-32.41309045 -29.43894127 -16.36862214 -14.34921283 0 0 Z " fill="#FF8664" transform="translate(304.4453125,50.91015625)"/>
</svg>
